<?xml version="1.0" encoding="utf-8"?>
<!-- Svg Vector Icons : http://www.onlinewebfonts.com/icon -->
<!DOCTYPE svg PUBLIC "-//W3C//DTD SVG 1.1//EN" "http://www.w3.org/Graphics/SVG/1.1/DTD/svg11.dtd">
<svg version="1.1" xmlns="http://www.w3.org/2000/svg" xmlns:xlink="http://www.w3.org/1999/xlink" x="0px" y="0px" viewBox="0 0 1000 1000" enable-background="new 0 0 1000 1000" xml:space="preserve">
<metadata> Svg Vector Icons : http://www.onlinewebfonts.com/icon </metadata>
<g><g transform="translate(0.000000,249.000000) scale(0.100000,-0.100000)"><path d="M100,786.4V-817.3h1603.6h1603.6V786.4V2390H1703.6H100V786.4z"/><path d="M6672.9,786.4V-817.3h1603.6h1603.6l7.9,1603.6L9900,2390H8288.4H6672.9V786.4z"/><path d="M3378.5-1716.1l-11.9-823.6l-799.8-11.9l-803.8-7.9v-2415.4v-2415.4h772.1h772.1l7.9,803.8l11.9,799.9l1674.9,11.9l1671,7.9v-819.6V-7410h791.9h791.9v2427.2v2423.3H7445h-811.7v831.5v831.5H5009.9H3386.5L3378.5-1716.1z"/></g></g>
</svg>